<svg xmlns="http://www.w3.org/2000/svg" viewBox="0 0 1024 1024" role="img" aria-label="Ride Day Grader app icon">
  <defs>
    <linearGradient id="bg" x1="0" x2="1" y1="1" y2="0">
      <stop offset="0%" stop-color="#2b5f9c"/>
      <stop offset="55%" stop-color="#6f97c0"/>
      <stop offset="100%" stop-color="#193d72"/>
    </linearGradient>
    <linearGradient id="tank" x1="0" x2="1">
      <stop offset="0%" stop-color="#f6f9fc"/>
      <stop offset="60%" stop-color="#ffffff"/>
      <stop offset="100%" stop-color="#bed3e8"/>
    </linearGradient>
    <linearGradient id="metal" x1="0" x2="1">
      <stop offset="0%" stop-color="#808c9d"/>
      <stop offset="100%" stop-color="#d5dbe4"/>
    </linearGradient>
    <filter id="shadow" x="-20%" y="-20%" width="140%" height="140%">
      <feDropShadow dx="0" dy="10" stdDeviation="18" flood-color="#0a1630" flood-opacity="0.35"/>
    </filter>
  </defs>

  <rect x="88" y="84" width="848" height="848" rx="176" fill="url(#bg)"/>
  <rect x="88" y="708" width="848" height="224" rx="176" fill="#2d5f99" opacity="0.92"/>
  <ellipse cx="510" cy="710" rx="360" ry="22" fill="#16375f" opacity="0.6"/>

  <g filter="url(#shadow)">
    <circle cx="266" cy="586" r="110" fill="#05070b"/>
    <circle cx="266" cy="586" r="88" fill="#cfd9e5"/>
    <circle cx="266" cy="586" r="72" fill="#090d13"/>
    <circle cx="266" cy="586" r="20" fill="#f2f4f7"/>

    <circle cx="776" cy="586" r="110" fill="#05070b"/>
    <circle cx="776" cy="586" r="88" fill="#cfd9e5"/>
    <circle cx="776" cy="586" r="72" fill="#090d13"/>
    <circle cx="776" cy="586" r="20" fill="#f2f4f7"/>

    <g stroke="#f6f8fb" stroke-width="9" stroke-linecap="round" opacity="0.92">
      <path d="M266 498v176M190 544l152 84M190 628l152-84"/>
      <path d="M776 498v176M700 544l152 84M700 628l152-84"/>
    </g>

    <path d="M302 590h116l84-68h138l88-126h48l-92 194H438l-64 48H278z" fill="#06090e"/>
    <path d="M374 590l130-140 66 56-92 84z" fill="#111823"/>
    <path d="M700 420l26 18-38 94h-26z" fill="#0d131d"/>

    <path d="M406 398c28-44 78-62 154-62 64 0 108 10 132 28l10 74c-76 12-140 10-190-6-20 18-40 48-64 92-28 18-52 18-74 0-12-36 0-78 32-126z" fill="url(#tank)"/>
    <path d="M434 392c48-18 112-20 188-6" stroke="#d6e2ef" stroke-width="16" stroke-linecap="round" opacity="0.85"/>

    <path d="M230 382c44-16 94-10 144 10l42 10c16 4 28 16 30 30 2 12-4 22-18 28l-64 0c-18-2-38-2-58 0l-62-34c-20-12-26-28-14-44z" fill="#0b1018"/>
    <rect x="224" y="360" width="138" height="38" rx="19" fill="#1d2734"/>
    <rect x="342" y="382" width="122" height="28" rx="14" fill="#131b25"/>

    <path d="M684 372l80 0c20 0 34 6 44 18l14 16-6 42-44 6-44-12z" fill="#0a0e14"/>
    <circle cx="744" cy="378" r="20" fill="#141b24"/>
    <rect x="696" y="454" width="32" height="126" rx="12" fill="#394452"/>
    <rect x="704" y="458" width="16" height="118" rx="8" fill="#596678"/>
    <path d="M762 406l34 8 18 40-8 10-30-8z" fill="#0a0e14"/>

    <path d="M636 508c18 0 34 14 34 34v58h-68v-58c0-20 16-34 34-34z" fill="#5e6774"/>
    <circle cx="540" cy="564" r="54" fill="#6d7b8c"/>
    <circle cx="540" cy="564" r="40" fill="#4e5c6c"/>

    <path d="M198 586l100-18" stroke="#0a0e13" stroke-width="20" stroke-linecap="round"/>
    <path d="M744 586l84-90" stroke="#0a0e13" stroke-width="20" stroke-linecap="round"/>

    <path d="M316 612h324" stroke="#f3f6fa" stroke-width="12" stroke-linecap="round" opacity="0.95"/>
    <path d="M344 580l-86-54 18-24 116 50z" fill="#2c3441"/>
    <path d="M382 564l-140-54 38-44 132 72z" fill="#111924"/>
    <path d="M622 590l58-120 60 14-56 106z" fill="#111a25"/>
    <path d="M246 480l66 10-18 34-70 6z" fill="#05080d"/>
    <path d="M774 480h24l26 18-4 18-38 4z" fill="#f18b1b"/>

    <path d="M324 620h312l22 20H310z" fill="#05080d"/>
    <path d="M450 466l188 0" stroke="#e7edf5" stroke-width="8" stroke-linecap="round" opacity="0.9"/>
    <path d="M420 430c22 12 54 18 96 20" stroke="#d7e3ef" stroke-width="8" stroke-linecap="round"/>
  </g>
</svg>
